<svg height="496pt" fill="#8A2BE2" viewBox="0 0 496 496" width="496pt" xmlns="http://www.w3.org/2000/svg"><path d="m496 200c0-30.878906-25.121094-56-56-56h-3.3125l-68.6875 68.6875v-212.6875h-283.3125l-84.6875 84.6875v411.3125h368v-164.6875l128-128zm-284.6875 192 164.6875-164.6875 12.6875 12.6875-164.6875 164.6875zm-5.65625 16.96875 25.375 25.375-29.597656 4.230469zm42.34375 19.71875-12.6875-12.6875 164.6875-164.6875 12.6875 12.6875zm139.3125-212.6875 12.6875-12.6875 36.6875 36.6875-12.6875 12.6875zm-307.3125-188.6875v52.6875h-52.6875zm272 452.6875h-336v-384h80v-80h256v212.6875l-159.542969 159.542969-9.890625 69.203125 69.203125-9.890625 100.230469-100.230469zm96-251.3125-36.6875-36.6875 31.871094-31.871094c19.519531 1.542969 35.144531 17.167969 36.6875 36.6875zm0 0"/><path d="m312 80c13.230469 0 24-10.769531 24-24s-10.769531-24-24-24-24 10.769531-24 24 10.769531 24 24 24zm0-32c4.40625 0 8 3.59375 8 8s-3.59375 8-8 8-8-3.59375-8-8 3.59375-8 8-8zm0 0"/><path d="m248 80c13.230469 0 24-10.769531 24-24s-10.769531-24-24-24-24 10.769531-24 24 10.769531 24 24 24zm0-32c4.40625 0 8 3.59375 8 8s-3.59375 8-8 8-8-3.59375-8-8 3.59375-8 8-8zm0 0"/><path d="m184 80c13.230469 0 24-10.769531 24-24s-10.769531-24-24-24-24 10.769531-24 24 10.769531 24 24 24zm0-32c4.40625 0 8 3.59375 8 8s-3.59375 8-8 8-8-3.59375-8-8 3.59375-8 8-8zm0 0"/><path d="m128 96h208v16h-208zm0 0"/><path d="m32 128h304v16h-304zm0 0"/><path d="m32 448h136v16h-136zm0 0"/><path d="m152 416h16v16h-16zm0 0"/><path d="m32 416h104v16h-104zm0 0"/><path d="m32 384h136v16h-136zm0 0"/><path d="m32 352h136v16h-136zm0 0"/><path d="m224 160h-192v176h192zm-16 160h-160v-144h160zm0 0"/><path d="m240 160h96v16h-96zm0 0"/><path d="m240 192h96v16h-96zm0 0"/><path d="m240 224h96v16h-96zm0 0"/><path d="m64 272h16v16h-16zm0 0"/><path d="m80 208h32v-16h-48v64h16zm0 0"/><path d="m336 392h-16v56h-16v16h32zm0 0"/><path d="m272 448h16v16h-16zm0 0"/></svg>