<svg height="480pt" viewBox="0 0 480 480" width="480pt" xmlns="http://www.w3.org/2000/svg"><path d="m120 240c-66.273438 0-120 53.726562-120 120s53.726562 120 120 120 120-53.726562 120-120c-.074219-66.242188-53.757812-119.925781-120-120zm-32 218.910156v-26.910156h-16v20.167969c-5.640625-2.96875-10.996094-6.453125-16-10.398438v-9.609375c.019531-10.714844 7.109375-20.128906 17.398438-23.113281l17.402343-4.957031 24.398438 18.308594c2.84375 2.136718 6.757812 2.136718 9.601562 0l24.398438-18.308594 17.410156 4.964844c10.285156 2.980468 17.371094 12.394531 17.390625 23.105468v9.648438c-5.003906 3.949218-10.359375 7.429687-16 10.398437v-20.207031h-16v26.910156c-20.792969 6.785156-43.207031 6.785156-64 0zm58.71875-143.34375-3.558594-7.132812c-1.023437-2.058594-2.882812-3.574219-5.101562-4.164063-2.222656-.59375-4.585938-.199219-6.5 1.074219l-11.902344 7.9375c-6.570312 4.386719-14.292969 6.726562-22.191406 6.71875h-9.464844c-.058594-17.671875 14.21875-32.046875 31.890625-32.109375 17.675781-.058594 32.050781 14.21875 32.109375 31.894531-2.296875-.558594-4.230469-2.101562-5.28125-4.21875zm-49.253906 20.433594c11.058594.011719 21.867187-3.265625 31.0625-9.40625l4.382812-2.921875c2.519532 4.445313 6.410156 7.953125 11.089844 10v10.328125c0 13.253906-10.746094 24-24 24s-24-10.746094-24-24v-8zm22.535156 48c2.6875.003906 5.367188-.265625 8-.800781v8.800781c.027344 2.277344 1.03125 4.433594 2.761719 5.921875l-10.761719 8.078125-10.761719-8.078125c1.730469-1.488281 2.734375-3.644531 2.761719-5.921875v-8.800781c2.632812.535156 5.3125.804687 8 .800781zm79.558594 42.847656c-2.113282-15.738281-13.3125-28.746094-28.558594-33.183594l-27-7.710937v-10.160156c10.035156-7.492188 15.964844-19.269531 16-31.792969v-8c4.417969 0 8-3.582031 8-8v-8c0-26.507812-21.492188-48-48-48s-48 21.492188-48 48v8c0 4.417969 3.582031 8 8 8v8c.035156 12.523438 5.964844 24.300781 16 31.792969v10.160156l-26.992188 7.710937c-15.25 4.433594-26.449218 17.445313-28.566406 33.183594-35.507812-42.175781-31.933594-104.730468 8.148438-142.585937 40.082031-37.855469 102.738281-37.855469 142.820312 0 40.082032 37.855469 43.65625 100.410156 8.148438 142.585937zm0 0"/><path d="m40 352h16v16h-16zm0 0"/><path d="m184 352h16v16h-16zm0 0"/><path d="m360 240c-66.273438 0-120 53.726562-120 120s53.726562 120 120 120 120-53.726562 120-120c-.074219-66.242188-53.757812-119.925781-120-120zm-32 218.910156v-26.910156h-16v20.167969c-5.640625-2.96875-10.996094-6.453125-16-10.398438v-9.609375c.019531-10.714844 7.109375-20.128906 17.398438-23.113281l17.402343-4.957031 24.398438 18.308594c2.84375 2.136718 6.757812 2.136718 9.601562 0l24.398438-18.308594 17.410156 4.964844c10.285156 2.980468 17.371094 12.394531 17.390625 23.105468v9.648438c-5.003906 3.949218-10.359375 7.429687-16 10.398437v-20.207031h-16v26.910156c-20.792969 6.785156-43.207031 6.785156-64 0zm58.71875-143.34375-3.558594-7.132812c-1.023437-2.058594-2.882812-3.574219-5.101562-4.164063-2.222656-.59375-4.585938-.199219-6.5 1.074219l-11.902344 7.9375c-6.570312 4.386719-14.292969 6.726562-22.191406 6.71875h-9.464844c-.058594-17.671875 14.21875-32.046875 31.890625-32.109375 17.675781-.058594 32.050781 14.21875 32.109375 31.894531-2.296875-.558594-4.230469-2.101562-5.28125-4.21875zm-49.253906 20.433594c11.058594.011719 21.867187-3.265625 31.0625-9.40625l4.382812-2.921875c2.519532 4.445313 6.410156 7.953125 11.089844 10v10.328125c0 13.253906-10.746094 24-24 24s-24-10.746094-24-24v-8zm22.535156 48c2.6875.003906 5.367188-.265625 8-.800781v8.800781c.027344 2.277344 1.03125 4.433594 2.761719 5.921875l-10.761719 8.078125-10.761719-8.078125c1.730469-1.488281 2.734375-3.644531 2.761719-5.921875v-8.800781c2.632812.535156 5.3125.804687 8 .800781zm79.558594 42.847656c-2.113282-15.738281-13.3125-28.746094-28.558594-33.183594l-27-7.710937v-10.160156c10.035156-7.492188 15.964844-19.269531 16-31.792969v-8c4.417969 0 8-3.582031 8-8v-8c0-26.507812-21.492188-48-48-48s-48 21.492188-48 48v8c0 4.417969 3.582031 8 8 8v8c.035156 12.523438 5.964844 24.300781 16 31.792969v10.160156l-26.992188 7.710937c-15.25 4.433594-26.449218 17.445313-28.566406 33.183594-35.507812-42.175781-31.933594-104.730468 8.148438-142.585937 40.082031-37.855469 102.738281-37.855469 142.820312 0 40.082032 37.855469 43.65625 100.410156 8.148438 142.585937zm0 0"/><path d="m280 352h16v16h-16zm0 0"/><path d="m424 352h16v16h-16zm0 0"/><path d="m208 144h8v24c0 3.234375 1.949219 6.152344 4.9375 7.390625s6.429688.550781 8.71875-1.734375l29.65625-29.65625h12.6875c30.929688 0 56-25.070312 56-56s-25.070312-56-56-56h-64c-30.929688 0-56 25.070312-56 56s25.070312 56 56 56zm0-96h64c22.089844 0 40 17.910156 40 40s-17.910156 40-40 40h-16c-2.121094 0-4.15625.84375-5.65625 2.34375l-18.34375 18.34375v-12.6875c0-4.417969-3.582031-8-8-8h-16c-22.089844 0-40-17.910156-40-40s17.910156-40 40-40zm0 0"/><path d="m232 80h16v16h-16zm0 0"/><path d="m264 80h16v16h-16zm0 0"/><path d="m200 80h16v16h-16zm0 0"/><path d="m456 112h16v16h-16zm0 0"/><path d="m456 144h16v16h-16zm0 0"/><path d="m456 176h16v16h-16zm0 0"/><path d="m456 208h16v16h-16zm0 0"/><path d="m56 96h48v88c0 13.253906 10.746094 24 24 24h224c13.253906 0 24-10.746094 24-24v-88h48v144h16v-152c0-4.417969-3.582031-8-8-8h-56v-56c0-13.253906-10.746094-24-24-24h-224c-13.253906 0-24 10.746094-24 24v56h-56c-4.417969 0-8 3.582031-8 8v152h16zm64-72c0-4.417969 3.582031-8 8-8h224c4.417969 0 8 3.582031 8 8v160c0 4.417969-3.582031 8-8 8h-224c-4.417969 0-8-3.582031-8-8zm0 0"/><path d="m8 112h16v16h-16zm0 0"/><path d="m8 144h16v16h-16zm0 0"/><path d="m8 176h16v16h-16zm0 0"/><path d="m8 208h16v16h-16zm0 0"/></svg>